<?xml version="1.0" standalone="no"?>
<!DOCTYPE svg PUBLIC "-//W3C//DTD SVG 20010904//EN"
 "http://www.w3.org/TR/2001/REC-SVG-20010904/DTD/svg10.dtd">
<svg version="1.0" xmlns="http://www.w3.org/2000/svg"
 width="512.000000pt" height="512.000000pt" viewBox="0 0 512.000000 512.000000"
 preserveAspectRatio="xMidYMid meet">
<metadata>
Created by potrace 1.14, written by Peter Selinger 2001-2017
</metadata>
<g transform="translate(0.000000,512.000000) scale(0.100000,-0.100000)"
fill="#000000" stroke="none">
<path d="M640 2586 l0 -1586 105 0 105 0 0 706 0 706 163 -7 c89 -4 219 -10
288 -14 l127 -6 392 -490 c669 -835 705 -872 860 -889 60 -7 91 4 73 26 -5 7
-176 223 -380 479 -496 624 -711 904 -701 914 1 2 66 28 144 58 240 94 344
157 467 287 284 296 301 734 43 1077 -169 224 -418 282 -1321 308 -110 3 -237
8 -282 11 l-83 6 0 -1586z m515 1399 c319 -13 548 -37 680 -71 164 -43 329
-179 403 -334 22 -47 45 -109 51 -138 15 -74 13 -206 -4 -280 -55 -233 -256
-436 -515 -520 -139 -46 -218 -54 -577 -59 l-343 -5 0 712 0 712 83 -6 c45 -3
145 -8 222 -11z"/>
<path d="M4276 4148 c-3 -7 -9 -407 -16 -888 -17 -1390 -31 -1594 -122 -1774
-38 -75 -114 -156 -218 -230 -130 -94 -143 -97 -446 -107 -268 -8 -312 -15
-343 -52 -21 -27 -5 -64 37 -86 167 -84 615 -56 838 54 202 99 369 372 424
692 35 200 42 448 44 1443 l1 955 -98 3 c-73 2 -98 -1 -101 -10z"/>
</g>
</svg>
